<?xml version="1.0" encoding="utf-8"?>
<!-- Generator: Adobe Illustrator 21.1.0, SVG Export Plug-In . SVG Version: 6.00 Build 0)  -->
<svg version="1.1" id="Layer_1" xmlns="http://www.w3.org/2000/svg" xmlns:xlink="http://www.w3.org/1999/xlink" x="0px" y="0px"
	 viewBox="0 0 300 114" style="enable-background:new 0 0 300 114;" xml:space="preserve">
<style type="text/css">
	.st0{fill:#FFFFFF;}
	.st1{fill:#005076;}
	.st2{fill:#088687;}
	.st3{fill:#4DB89E;}
	.st4{fill:#EFB031;}
	.st5{fill:#EB573D;}
</style>
<g>
	<path class="st0" d="M45.4,105.2L6.3,82.8V35.2l39.2-22.4l39.3,22.4v47.6L45.4,105.2z M10.5,80.4l35,20l35.1-20V37.7l-35.1-20
		l-35,20V80.4z"/>
	<g>
		<path class="st0" d="M107.6,51.9H101v-4.3h18.2v4.3h-6.6v18.5h-4.9V51.9z"/>
		<path class="st0" d="M144.7,60.8H134v9.6h-4.9V47.6h4.9v9h10.8v-9h4.9v22.8h-4.9V60.8z"/>
		<path class="st0" d="M161,47.6h16.1v4.3h-11.3v4.8h11V61h-11v5.2h11.3v4.3H161V47.6z"/>
		<path class="st0" d="M192.6,55.5v14.9h-4.9V47.6h5l10.6,14.3V47.6h4.9v22.8h-4.7L192.6,55.5z"/>
		<path class="st0" d="M224.8,51.9h-6.7v-4.3h18.2v4.3h-6.6v18.5h-4.9V51.9z"/>
		<path class="st0" d="M246.3,47.6h4.9v22.8h-4.9V47.6z"/>
		<path class="st0" d="M276.8,66.5H267l-1.4,3.9H260l8.8-22.8h6.1l8.8,22.8h-5.5L276.8,66.5z M268.3,62.3h7.1l-3.6-9.8L268.3,62.3z"
			/>
	</g>
	<g>
		<polygon class="st1" points="69.6,43.2 44.9,29.2 44.9,35.5 64.1,46.4 64.1,70 69.6,73.2 		"/>
		<polygon class="st2" points="44.9,35.5 39.3,32.3 39.3,39.3 58.1,49.9 58.1,73 64.1,76.4 64.1,70 64.1,46.4 		"/>
		<polygon class="st3" points="58.1,49.9 39.3,39.3 33.4,35.9 33.4,43.2 51.7,53.6 51.7,76.3 58.1,79.9 58.1,73 		"/>
		<polygon class="st4" points="51.7,53.6 33.4,43.2 27,39.5 27,46.7 45.5,57.3 45.5,80.1 51.7,83.6 51.7,76.3 		"/>
		<polygon class="st5" points="45.5,57.3 27,46.7 20.8,43.2 20.8,73.2 45.5,87.3 45.5,80.1 		"/>
	</g>
</g>
</svg>
