<?xml version="1.0" encoding="utf-8"?>
<!-- Generator: Adobe Illustrator 21.0.2, SVG Export Plug-In . SVG Version: 6.00 Build 0)  -->
<svg version="1.1" id="Layer_1" xmlns="http://www.w3.org/2000/svg" xmlns:xlink="http://www.w3.org/1999/xlink" x="0px" y="0px"
	 viewBox="0 0 151 51.8" style="enable-background:new 0 0 151 51.8;" xml:space="preserve">
<style type="text/css">
	.st0{fill:none;stroke:#3E4749;stroke-width:2;stroke-linecap:round;stroke-linejoin:round;stroke-miterlimit:10;}
	.st1{fill:none;stroke:#FFFFFF;stroke-width:2;stroke-miterlimit:10;}
	.st2{fill:#FFFFFF;}
	.st3{opacity:0.29;fill:#FFFFFF;}
	.st4{opacity:0.4;fill:#FFFFFF;}
	.st5{opacity:0.63;fill:#FFFFFF;}
	.st6{opacity:0.79;fill:#FFFFFF;}
</style>
<g>
	<path class="st0" d="M747.9,631c-6.1,0.3-8.9,5.4-9.6,10.3c-0.2,1.4,0.9,2.6,2.3,2.6h15.9c1.4,0,2.5-1.3,2.3-2.6
		c-0.4-2.3-1.2-4.6-2.6-6.4"/>
	<path class="st0" d="M748.2,635.9c-0.5,0.1-1,0.4-1.4,0.9c-0.7,1-0.4,2.3,0.6,3s2.3,0.4,3-0.6c0.3-0.5,0.4-1.1,0.3-1.7l0,0
		c0,0,3.4-7.9,3.4-7.9L748.2,635.9"/>
</g>
<g>
	<polygon class="st1" points="27.5,47.6 9.1,37.1 9.1,14.7 27.5,4.2 45.9,14.7 45.9,37.1 	"/>
	<g>
		<path class="st2" d="M58.2,21.8h-3.3v-2.1h9v2.1h-3.3V31h-2.4V21.8z"/>
		<path class="st2" d="M76.6,26.2h-5.3V31h-2.4V19.7h2.4v4.4h5.3v-4.4H79V31h-2.4V26.2z"/>
		<path class="st2" d="M84.6,19.7h8v2.1h-5.6v2.4h5.5v2.1h-5.5v2.6h5.6V31h-8V19.7z"/>
		<path class="st2" d="M100.3,23.6V31h-2.4V19.7h2.5l5.2,7.1v-7.1h2.4V31h-2.3L100.3,23.6z"/>
		<path class="st2" d="M116.2,21.8h-3.3v-2.1h9v2.1h-3.3V31h-2.4V21.8z"/>
		<path class="st2" d="M126.9,19.7h2.4V31h-2.4V19.7z"/>
		<path class="st2" d="M142,29.1h-4.8l-0.7,1.9h-2.7l4.4-11.3h3l4.3,11.3h-2.7L142,29.1z M137.8,27h3.5l-1.8-4.9L137.8,27z"/>
	</g>
	<g>
		<polygon class="st3" points="39.4,32.9 27.2,26 27.2,11.1 39.4,18.1 		"/>
		<polygon class="st4" points="36.7,34.5 24.4,27.5 24.4,12.7 36.7,19.6 		"/>
		<polygon class="st5" points="33.7,36.2 21.5,29.3 21.5,14.4 33.7,21.4 		"/>
		<polygon class="st6" points="30.6,38.1 18.3,31.1 18.3,16.3 30.6,23.2 		"/>
		<polygon class="st2" points="27.5,39.9 15.3,32.9 15.3,18.1 27.5,25 		"/>
	</g>
</g>
</svg>
