<?xml version="1.0" encoding="utf-8"?>
<!-- Generator: Adobe Illustrator 20.0.0, SVG Export Plug-In . SVG Version: 6.00 Build 0)  -->
<svg version="1.1" id="Layer_1" xmlns="http://www.w3.org/2000/svg" xmlns:xlink="http://www.w3.org/1999/xlink" x="0px" y="0px"
	 viewBox="0 0 171.5 59" style="enable-background:new 0 0 171.5 59;" xml:space="preserve">
<style type="text/css">
	.st0{fill:none;stroke:#3D474F;stroke-width:2;stroke-miterlimit:10;}
	.st1{fill:#3D474F;}
	.st2{fill:#004F75;}
	.st3{fill:#058586;}
	.st4{fill:#4DB89E;}
	.st5{fill:#F0B032;}
	.st6{fill:#EB563C;}
</style>
<g>
	<polygon class="st0" points="27.1,55.9 5.2,43.3 5.2,16.6 27.1,4.1 49.1,16.6 49.1,43.3 	"/>
	<g>
		<path class="st1" d="M63.9,25.3H60v-2.5h10.8v2.5h-3.9v11h-2.9V25.3z"/>
		<path class="st1" d="M85.9,30.6h-6.4v5.7h-2.9V22.8h2.9v5.3h6.4v-5.3h2.9v13.5h-2.9V30.6z"/>
		<path class="st1" d="M95.4,22.8h9.5v2.5h-6.7v2.9h6.5v2.5h-6.5v3.1h6.7v2.5h-9.5V22.8z"/>
		<path class="st1" d="M114.2,27.5v8.8h-2.9V22.8h3l6.2,8.5v-8.5h2.9v13.5h-2.8L114.2,27.5z"/>
		<path class="st1" d="M133.2,25.3h-3.9v-2.5H140v2.5h-3.9v11h-2.9V25.3z"/>
		<path class="st1" d="M145.9,22.8h2.9v13.5h-2.9V22.8z"/>
		<path class="st1" d="M164,34h-5.8l-0.8,2.3h-3.3l5.2-13.5h3.6l5.2,13.5h-3.3L164,34z M159,31.5h4.2l-2.1-5.8L159,31.5z"/>
	</g>
	<g>
		<polygon class="st2" points="41.4,38.4 26.8,30.1 26.8,12.3 41.4,20.6 		"/>
		<polygon class="st3" points="38.1,40.2 23.5,31.9 23.5,14.2 38.1,22.5 		"/>
		<polygon class="st4" points="34.6,42.3 20,34 20,16.3 34.6,24.6 		"/>
		<polygon class="st5" points="30.8,44.5 16.2,36.2 16.2,18.5 30.8,26.8 		"/>
		<polygon class="st6" points="27.2,46.7 12.6,38.4 12.6,20.6 27.2,29 		"/>
	</g>
</g>
</svg>
