<?xml version="1.0" encoding="utf-8"?>
<!-- Generator: Adobe Illustrator 21.1.0, SVG Export Plug-In . SVG Version: 6.00 Build 0)  -->
<svg version="1.1" id="Layer_1" xmlns="http://www.w3.org/2000/svg" xmlns:xlink="http://www.w3.org/1999/xlink" x="0px" y="0px"
	 viewBox="0 0 16 16" style="enable-background:new 0 0 16 16;" xml:space="preserve">
<style type="text/css">
	.st0{fill:#273A87;}
	.st1{fill:#18978F;}
	.st2{fill:#444444;}
</style>
<g>
	<g>
		<g>
			<path class="st0" d="M-280.4,20.2c0,0-0.3-0.1-0.9-0.2c-0.6-0.1-1.4-0.3-2.5-0.6c-1.1-0.3-2.3-0.8-3.7-1.5
				c-1.4-0.7-2.9-1.5-4.4-2.7c-1.6-1.1-3-2.6-4.5-4.2c-1.4-1.7-2.7-3.6-3.8-5.8c-1.1-2.2-1.8-4.6-2.3-7.1c-0.5-2.5-0.5-5.2-0.3-7.7
				c0.2-2.7,1-5.2,1.8-7.6c1-2.4,2.2-4.6,3.8-6.5c0.3-0.5,0.8-0.9,1.2-1.4c0.4-0.4,0.8-0.9,1.2-1.3c0.9-0.8,1.7-1.6,2.6-2.3
				c0.5-0.3,0.9-0.7,1.3-1c0.5-0.3,0.9-0.6,1.4-0.8c0.9-0.6,1.8-1,2.7-1.4c1.8-0.8,3.5-1.3,5.1-1.7c0.8-0.2,1.5-0.3,2.2-0.4
				c0.7-0.1,1.3-0.2,1.9-0.2c1.2,0,2-0.1,2.7-0.1c0.6,0,0.9,0,0.9,0c0.7,0,1.2,0.6,1.2,1.3c0,0.7-0.6,1.2-1.3,1.2c0,0-0.3,0-0.9,0
				c-0.5,0-1.4,0.1-2.4,0.2c-0.5,0-1.1,0.2-1.7,0.3c-0.6,0.1-1.3,0.2-2,0.4c-1.4,0.3-2.9,0.9-4.6,1.6c-0.8,0.4-1.7,0.7-2.4,1.3
				c-0.4,0.2-0.8,0.5-1.2,0.8c-0.4,0.3-0.8,0.6-1.2,0.9c-0.8,0.6-1.6,1.3-2.4,2c-0.4,0.3-0.7,0.8-1.1,1.2c-0.4,0.4-0.8,0.8-1.1,1.2
				c-1.4,1.7-2.6,3.7-3.6,5.8c-0.9,2.1-1.6,4.5-1.9,6.8c-0.3,2.5-0.4,4.8,0,7.2c0.3,2.3,0.9,4.6,1.8,6.7c0.9,2.1,2,4,3.3,5.6
				c1.3,1.6,2.6,3.1,4.1,4.3c1.4,1.2,2.8,2.1,4.1,2.8c1.3,0.7,2.5,1.3,3.5,1.6c1,0.4,1.8,0.6,2.4,0.8c0.6,0.2,0.9,0.2,0.9,0.2
				c0.1,0,0.1,0.1,0.1,0.2C-280.2,20.1-280.3,20.2-280.4,20.2z"/>
			<path class="st0" d="M-280.7,15.4c0,0-0.3-0.1-0.7-0.2c-0.5-0.1-1.2-0.3-2-0.6c-0.4-0.2-0.9-0.3-1.4-0.6
				c-0.5-0.2-1.1-0.5-1.6-0.8c-0.3-0.2-0.6-0.3-0.9-0.5c-0.3-0.2-0.6-0.4-0.9-0.6c-0.6-0.4-1.2-0.9-1.8-1.4c-1.2-1-2.5-2.3-3.5-3.8
				c-1.1-1.5-2.1-3.2-2.8-5.1c-0.7-1.9-1.3-3.9-1.5-6.1c0-0.5-0.1-1.1-0.1-1.6c0-0.2,0-0.2,0-0.5l0-0.4l0-0.8c0-1,0.2-2.2,0.3-3.3
				c0.4-2.1,1.1-4.3,2.1-6.2c1-1.9,2.2-3.7,3.6-5.2c0.7-0.8,1.5-1.4,2.2-2.1c0.8-0.6,1.5-1.3,2.4-1.7c0.8-0.5,1.6-1,2.4-1.4
				c0.4-0.2,0.8-0.4,1.2-0.6c0.4-0.2,0.8-0.3,1.2-0.4c0.8-0.3,1.5-0.5,2.3-0.7c0.7-0.2,1.4-0.3,2.1-0.4c0.3-0.1,0.7-0.1,1-0.2
				c0.3,0,0.6,0,0.9-0.1c0.3,0,0.6,0,0.8,0c0.1,0,0.3,0,0.4,0l0.2,0l0.1,0l0,0l0.1,0c1.8,0.1,2.9,0.2,2.9,0.2
				c0.8,0.1,1.4,0.7,1.3,1.5c-0.1,0.8-0.7,1.4-1.5,1.3c0,0-1-0.1-2.9-0.2c-0.4,0-0.8,0-1.3,0.1c-0.3,0-0.5,0-0.8,0
				c-0.3,0-0.6,0.1-0.9,0.1c-0.6,0.1-1.2,0.2-1.9,0.3c-0.6,0.2-1.3,0.3-2,0.6c-0.3,0.1-0.7,0.2-1.1,0.4c-0.4,0.1-0.7,0.3-1.1,0.5
				c-0.7,0.3-1.4,0.7-2.2,1.2c-0.4,0.2-0.7,0.5-1.1,0.7c-0.4,0.3-0.7,0.5-1.1,0.8c-0.6,0.6-1.4,1.1-2,1.8c-1.3,1.3-2.4,2.9-3.4,4.6
				c-1,1.7-1.6,3.6-2,5.5c-0.2,1-0.4,1.9-0.4,2.9l-0.1,0.8l0,0.4c0,0,0,0.2,0,0.3c0,0.5,0,1,0,1.5c0.1,2,0.5,3.9,1.1,5.7
				c0.6,1.8,1.5,3.4,2.4,4.9c0.9,1.5,2.1,2.7,3.1,3.8c0.6,0.5,1.1,1,1.7,1.4c0.3,0.2,0.5,0.4,0.8,0.6c0.3,0.2,0.5,0.4,0.8,0.5
				c0.5,0.4,1,0.6,1.5,0.9c0.5,0.3,0.9,0.5,1.3,0.7c0.8,0.4,1.5,0.6,2,0.8c0.5,0.2,0.7,0.2,0.7,0.2c0.1,0,0.1,0.1,0.1,0.2
				C-280.6,15.3-280.7,15.4-280.7,15.4z"/>
			<path class="st0" d="M-280.8,10.5c0,0-0.2-0.1-0.6-0.2c-0.4-0.1-0.9-0.3-1.6-0.6c-0.3-0.1-0.7-0.3-1.1-0.5
				c-0.4-0.2-0.8-0.4-1.2-0.7c-0.9-0.5-1.8-1.3-2.7-2.1c-0.9-0.9-1.8-1.9-2.6-3.1c-0.8-1.2-1.5-2.6-2-4.1c-0.5-1.5-0.8-3.2-0.9-4.9
				l0-0.3l0-0.3l0-0.6c0-0.4,0-0.8,0.1-1.2c0.1-0.9,0.2-1.8,0.4-2.6c0.2-0.9,0.5-1.7,0.8-2.5c0.4-0.8,0.7-1.6,1.1-2.3
				c0.8-1.5,1.9-2.8,3.1-4c0.3-0.3,0.6-0.6,0.9-0.8c0.3-0.3,0.6-0.5,0.9-0.7c0.6-0.5,1.3-0.9,1.9-1.3c0.7-0.4,1.3-0.7,2-1
				c0.7-0.2,1.3-0.5,1.9-0.7c1.3-0.4,2.5-0.6,3.5-0.7c1.1-0.1,2-0.1,2.8-0.1c1.5,0.1,2.4,0.3,2.4,0.3l0.1,0c0.8,0.2,1.2,0.9,1.1,1.7
				c-0.2,0.8-0.9,1.2-1.7,1.1c0,0,0,0,0,0c0,0-0.7-0.2-2.1-0.3c-0.7-0.1-1.5,0-2.4,0c-0.9,0.1-1.9,0.2-3,0.5
				c-0.6,0.1-1.1,0.4-1.7,0.6c-0.6,0.2-1.1,0.5-1.7,0.8c-1.1,0.6-2.3,1.4-3.3,2.4c-1,1-2,2.1-2.8,3.4c-0.4,0.6-0.7,1.3-1.1,2
				c-0.3,0.7-0.6,1.4-0.8,2.2c-0.2,0.7-0.4,1.5-0.5,2.2c-0.1,0.4-0.1,0.8-0.1,1.2l0,0.6l0,0.3l0,0.3c0,1.5,0.2,3.1,0.6,4.5
				c0.7,2.9,2.2,5.3,3.8,7.1c0.8,0.9,1.6,1.6,2.4,2.2c0.4,0.3,0.8,0.6,1.1,0.8c0.4,0.2,0.7,0.4,1,0.6c0.6,0.3,1.1,0.6,1.5,0.7
				c0.4,0.2,0.5,0.2,0.5,0.2c0.1,0,0.1,0.1,0.1,0.2C-280.6,10.5-280.7,10.5-280.8,10.5z"/>
			<path class="st0" d="M-280.4,5.5c0,0-0.1-0.1-0.4-0.2c-0.3-0.1-0.6-0.3-1.1-0.5c-0.5-0.3-1-0.6-1.6-1c-0.6-0.4-1.2-1-1.8-1.7
				c-1.2-1.3-2.3-3.2-2.9-5.5c-0.3-1.1-0.4-2.3-0.4-3.5c0-0.3,0-0.6,0-0.9l0.1-1c0.1-0.6,0.2-1.2,0.4-1.8c0.4-1.2,0.9-2.3,1.6-3.4
				c0.7-1,1.5-2,2.4-2.8c0.4-0.4,0.9-0.7,1.4-1.1c0.5-0.3,0.9-0.6,1.4-0.9c0.5-0.2,1-0.5,1.5-0.7c0.2-0.1,0.5-0.2,0.7-0.3
				c0.2-0.1,0.5-0.1,0.7-0.2c0.2-0.1,0.5-0.1,0.7-0.2c0.2,0,0.4-0.1,0.7-0.1c0.4-0.1,0.8-0.1,1.2-0.2c0.8-0.1,1.5-0.1,2,0
				c1.1,0.1,1.8,0.2,1.8,0.2l0.1,0c0.8,0.2,1.2,0.9,1.1,1.7c-0.2,0.8-0.9,1.2-1.7,1.1c0,0,0,0-0.1,0c0,0-0.5-0.1-1.4-0.2
				c-0.4-0.1-1-0.1-1.6,0c-0.3,0-0.7,0-1,0.1c-0.2,0-0.4,0-0.5,0.1c-0.2,0-0.4,0.1-0.6,0.1c-0.2,0-0.4,0.1-0.6,0.1
				c-0.2,0.1-0.4,0.1-0.6,0.2c-0.4,0.1-0.8,0.3-1.2,0.5c-0.4,0.2-0.8,0.4-1.2,0.7c-0.4,0.3-0.8,0.5-1.2,0.9
				c-0.8,0.6-1.5,1.4-2.1,2.2c-0.6,0.9-1.1,1.8-1.5,2.8c-0.2,0.5-0.3,1-0.5,1.5l-0.2,0.8c-0.1,0.3-0.1,0.6-0.1,0.8
				c-0.1,1.1-0.1,2.1,0.1,3.2c0.4,2,1.2,3.9,2.2,5.2c1,1.4,2.1,2.3,2.9,2.9c0.4,0.3,0.7,0.5,1,0.6c0.2,0.1,0.4,0.2,0.4,0.2
				c0.1,0,0.1,0.1,0,0.2C-280.3,5.6-280.3,5.6-280.4,5.5z"/>
			<path class="st0" d="M-279.1,0.9c0,0-0.1,0-0.2-0.1c-0.2-0.1-0.4-0.2-0.6-0.4c-0.5-0.3-1.3-0.9-2-1.8c-0.7-0.9-1.4-2.1-1.6-3.5
				c-0.1-0.4-0.1-0.7-0.2-1.1c0-0.4,0-0.7,0-1.1c0.1-0.8,0.2-1.6,0.4-2.3c0.3-0.7,0.6-1.5,1.1-2.1c0.4-0.7,1-1.2,1.5-1.7
				c0.6-0.5,1.2-0.9,1.8-1.2c0.6-0.3,1.2-0.6,1.8-0.8c0.6-0.2,1.1-0.3,1.6-0.3c0.5-0.1,0.9-0.1,1.3-0.1c0.7,0,1.2,0.1,1.2,0.1l0.1,0
				c0.8,0.1,1.3,0.9,1.2,1.6c-0.1,0.8-0.9,1.3-1.6,1.2c-0.1,0-0.2,0-0.3-0.1c0,0-0.3-0.1-0.8-0.2c-0.3-0.1-0.6-0.1-1-0.1
				c-0.2,0-0.4,0-0.6,0c-0.2,0-0.4,0-0.7,0.1c-0.5,0.1-1,0.2-1.4,0.4c-0.5,0.2-1,0.5-1.5,0.8c-0.5,0.4-0.9,0.8-1.3,1.3
				c-0.4,0.5-0.7,1.1-1,1.7c-0.3,0.6-0.4,1.2-0.6,1.8c0,0.3-0.1,0.7-0.1,1c0,0.3,0,0.6,0,0.9c0.1,1.2,0.6,2.4,1.1,3.3
				c0.5,0.9,1.2,1.5,1.6,1.9c0.2,0.2,0.4,0.4,0.6,0.4c0.1,0.1,0.2,0.2,0.2,0.2c0,0,0.1,0.1,0,0.1C-279,0.9-279,1-279.1,0.9z"/>
		</g>
		<g>
			<path class="st1" d="M-269.1-33.1c0,0,0.3,0.1,0.9,0.2c0.6,0.1,1.4,0.3,2.5,0.6c1.1,0.3,2.3,0.8,3.7,1.5c1.4,0.7,2.9,1.5,4.4,2.7
				c1.6,1.1,3,2.6,4.5,4.2c1.4,1.7,2.7,3.6,3.8,5.8c1.1,2.2,1.8,4.6,2.3,7.1c0.5,2.5,0.5,5.2,0.3,7.7c-0.2,2.7-1,5.2-1.8,7.6
				c-1,2.4-2.3,4.6-3.8,6.5c-0.3,0.5-0.8,0.9-1.2,1.4c-0.4,0.4-0.8,0.9-1.2,1.3c-0.9,0.8-1.7,1.6-2.6,2.3c-0.5,0.3-0.9,0.7-1.3,1
				c-0.5,0.3-0.9,0.6-1.4,0.8c-0.9,0.6-1.8,1-2.7,1.4c-1.8,0.8-3.5,1.3-5.1,1.7c-0.8,0.2-1.5,0.3-2.2,0.4c-0.7,0.1-1.3,0.2-1.9,0.2
				c-1.2,0-2,0.1-2.7,0.1c-0.6,0-0.9,0-0.9,0c-0.7,0-1.2-0.6-1.2-1.3c0-0.7,0.6-1.2,1.3-1.2c0,0,0.3,0,0.9,0c0.5,0,1.4-0.1,2.4-0.2
				c0.5,0,1.1-0.2,1.7-0.3c0.6-0.1,1.3-0.2,2-0.4c1.4-0.3,2.9-0.9,4.6-1.6c0.8-0.4,1.7-0.7,2.4-1.3c0.4-0.2,0.8-0.5,1.2-0.8
				c0.4-0.3,0.8-0.6,1.2-0.9c0.8-0.6,1.6-1.3,2.4-2c0.4-0.3,0.7-0.8,1.1-1.2c0.4-0.4,0.8-0.8,1.1-1.2c1.4-1.7,2.6-3.7,3.6-5.8
				c0.9-2.1,1.6-4.5,1.9-6.8c0.3-2.5,0.4-4.8,0-7.2c-0.3-2.3-0.9-4.6-1.8-6.7c-0.9-2.1-2-4-3.3-5.6c-1.3-1.6-2.6-3.1-4.1-4.3
				c-1.4-1.2-2.8-2.1-4.1-2.8c-1.3-0.7-2.5-1.3-3.5-1.6c-1-0.4-1.8-0.6-2.4-0.8c-0.6-0.2-0.9-0.2-0.9-0.2c-0.1,0-0.1-0.1-0.1-0.2
				C-269.3-33.1-269.2-33.1-269.1-33.1z"/>
			<path class="st1" d="M-268.8-28.3c0,0,0.3,0.1,0.7,0.2c0.5,0.1,1.2,0.3,2,0.6c0.4,0.2,0.9,0.3,1.4,0.6c0.5,0.2,1.1,0.5,1.6,0.8
				c0.3,0.2,0.6,0.3,0.9,0.5c0.3,0.2,0.6,0.4,0.9,0.6c0.6,0.4,1.2,0.9,1.8,1.4c1.2,1,2.5,2.3,3.5,3.8c1.1,1.5,2.1,3.2,2.8,5.1
				c0.7,1.9,1.3,3.9,1.5,6.1c0,0.5,0.1,1.1,0.1,1.6c0,0.2,0,0.2,0,0.5l0,0.4l0,0.8c0,1-0.2,2.2-0.3,3.3c-0.4,2.1-1.1,4.3-2.1,6.2
				c-1,1.9-2.2,3.7-3.6,5.2c-0.7,0.8-1.5,1.4-2.2,2.1c-0.8,0.6-1.5,1.3-2.4,1.7c-0.8,0.5-1.6,1-2.4,1.4c-0.4,0.2-0.8,0.4-1.2,0.6
				c-0.4,0.2-0.8,0.3-1.2,0.4c-0.8,0.3-1.5,0.5-2.3,0.7c-0.7,0.2-1.4,0.3-2.1,0.4c-0.3,0.1-0.7,0.1-1,0.2c-0.3,0-0.6,0-0.9,0.1
				c-0.3,0-0.6,0-0.8,0c-0.1,0-0.3,0-0.4,0l-0.2,0l-0.1,0l0,0l-0.1,0c-1.8-0.1-2.9-0.2-2.9-0.2c-0.8-0.1-1.4-0.7-1.3-1.5
				c0.1-0.8,0.7-1.4,1.5-1.3c0,0,1,0.1,2.9,0.2c0.4,0,0.8,0,1.3-0.1c0.3,0,0.5,0,0.8,0c0.3,0,0.6-0.1,0.9-0.1
				c0.6-0.1,1.2-0.2,1.9-0.3c0.6-0.2,1.3-0.3,2-0.6c0.3-0.1,0.7-0.2,1.1-0.4c0.4-0.1,0.7-0.3,1.1-0.5c0.7-0.3,1.4-0.7,2.2-1.2
				c0.4-0.2,0.7-0.5,1.1-0.7c0.4-0.3,0.7-0.5,1.1-0.8c0.6-0.6,1.4-1.1,2-1.8c1.3-1.3,2.4-2.9,3.4-4.6c1-1.7,1.6-3.6,2-5.5
				c0.2-1,0.4-1.9,0.4-2.9l0.1-0.8l0-0.4c0,0,0-0.2,0-0.3c0-0.5,0-1,0-1.5c-0.1-2-0.5-3.9-1.1-5.7c-0.6-1.8-1.5-3.4-2.4-4.9
				c-0.9-1.5-2.1-2.7-3.1-3.8c-0.6-0.5-1.1-1-1.7-1.4c-0.3-0.2-0.5-0.4-0.8-0.6c-0.3-0.2-0.5-0.4-0.8-0.5c-0.5-0.4-1-0.6-1.5-0.9
				c-0.5-0.3-0.9-0.5-1.3-0.7c-0.8-0.4-1.5-0.6-2-0.8c-0.5-0.2-0.7-0.2-0.7-0.2c-0.1,0-0.1-0.1-0.1-0.2
				C-268.9-28.3-268.8-28.3-268.8-28.3z"/>
			<path class="st1" d="M-268.8-23.4c0,0,0.2,0.1,0.6,0.2c0.4,0.1,0.9,0.3,1.6,0.6c0.3,0.1,0.7,0.3,1.1,0.5c0.4,0.2,0.8,0.4,1.2,0.7
				c0.9,0.5,1.8,1.3,2.7,2.1c0.9,0.9,1.8,1.9,2.6,3.1c0.8,1.2,1.5,2.6,2,4.1c0.5,1.5,0.8,3.2,0.9,4.9l0,0.3l0,0.3l0,0.6
				c0,0.4,0,0.8-0.1,1.2c-0.1,0.9-0.2,1.8-0.4,2.6c-0.2,0.9-0.5,1.7-0.8,2.5c-0.4,0.8-0.7,1.6-1.1,2.3c-0.8,1.5-1.9,2.8-3.1,4
				c-0.3,0.3-0.6,0.6-0.9,0.8c-0.3,0.3-0.6,0.5-0.9,0.7c-0.6,0.5-1.3,0.9-1.9,1.3c-0.7,0.4-1.3,0.7-2,1c-0.7,0.2-1.3,0.5-1.9,0.7
				c-1.3,0.4-2.5,0.6-3.5,0.7c-1.1,0.1-2,0.1-2.8,0.1c-1.5-0.1-2.4-0.3-2.4-0.3l-0.1,0c-0.8-0.2-1.2-0.9-1.1-1.7
				c0.2-0.8,0.9-1.2,1.7-1.1c0,0,0,0,0,0c0,0,0.7,0.2,2.1,0.3c0.7,0.1,1.5,0,2.4,0c0.9-0.1,1.9-0.2,3-0.5c0.6-0.1,1.1-0.4,1.7-0.6
				c0.6-0.2,1.1-0.5,1.7-0.8c1.1-0.6,2.3-1.4,3.3-2.4c1-1,2-2.1,2.8-3.4c0.4-0.6,0.7-1.3,1.1-2c0.3-0.7,0.6-1.4,0.8-2.2
				c0.2-0.7,0.4-1.5,0.5-2.2c0.1-0.4,0.1-0.8,0.1-1.2l0-0.6l0-0.3l0-0.3c0-1.5-0.2-3.1-0.6-4.5c-0.7-2.9-2.2-5.3-3.8-7.1
				c-0.8-0.9-1.6-1.6-2.4-2.2c-0.4-0.3-0.8-0.6-1.1-0.8c-0.4-0.2-0.7-0.4-1-0.6c-0.6-0.3-1.1-0.6-1.5-0.7c-0.4-0.2-0.5-0.2-0.5-0.2
				c-0.1,0-0.1-0.1-0.1-0.2C-268.9-23.4-268.8-23.4-268.8-23.4z"/>
			<path class="st1" d="M-269.1-18.5c0,0,0.1,0.1,0.4,0.2c0.3,0.1,0.6,0.3,1.1,0.5c0.5,0.3,1,0.6,1.6,1c0.6,0.4,1.2,1,1.8,1.7
				c1.2,1.3,2.3,3.2,2.9,5.5c0.3,1.1,0.4,2.3,0.4,3.5c0,0.3,0,0.6,0,0.9l-0.1,1c-0.1,0.6-0.2,1.2-0.4,1.8c-0.4,1.2-0.9,2.3-1.6,3.4
				c-0.7,1-1.5,2-2.4,2.8c-0.4,0.4-0.9,0.7-1.4,1.1c-0.5,0.3-0.9,0.6-1.4,0.9c-0.5,0.2-1,0.5-1.5,0.7c-0.2,0.1-0.5,0.2-0.7,0.3
				c-0.2,0.1-0.5,0.1-0.7,0.2c-0.2,0.1-0.5,0.1-0.7,0.2c-0.2,0-0.4,0.1-0.7,0.1c-0.4,0.1-0.8,0.1-1.2,0.2c-0.8,0.1-1.5,0.1-2,0
				c-1.1-0.1-1.8-0.2-1.8-0.2l-0.1,0c-0.8-0.2-1.2-0.9-1.1-1.7c0.2-0.8,0.9-1.2,1.7-1.1c0,0,0,0,0.1,0c0,0,0.5,0.1,1.4,0.2
				c0.4,0.1,1,0.1,1.6,0c0.3,0,0.7,0,1-0.1c0.2,0,0.4,0,0.5-0.1c0.2,0,0.4-0.1,0.6-0.1c0.2,0,0.4-0.1,0.6-0.1
				c0.2-0.1,0.4-0.1,0.6-0.2c0.4-0.1,0.8-0.3,1.2-0.5c0.4-0.2,0.8-0.4,1.2-0.7c0.4-0.3,0.8-0.5,1.2-0.9c0.8-0.6,1.5-1.4,2.1-2.2
				c0.6-0.9,1.1-1.8,1.5-2.8c0.2-0.5,0.3-1,0.5-1.5l0.2-0.8c0.1-0.3,0.1-0.6,0.1-0.8c0.1-1.1,0.1-2.1-0.1-3.2
				c-0.4-2-1.2-3.9-2.2-5.2c-1-1.4-2.1-2.3-2.9-2.9c-0.4-0.3-0.7-0.5-1-0.6c-0.2-0.1-0.4-0.2-0.4-0.2c-0.1,0-0.1-0.1,0-0.2
				C-269.2-18.5-269.2-18.5-269.1-18.5z"/>
			<path class="st1" d="M-270.4-13.9c0,0,0.1,0,0.2,0.1c0.2,0.1,0.4,0.2,0.6,0.4c0.5,0.3,1.3,0.9,2,1.8c0.7,0.9,1.4,2.1,1.6,3.5
				c0.1,0.4,0.1,0.7,0.2,1.1c0,0.4,0,0.7,0,1.1c-0.1,0.8-0.2,1.6-0.4,2.3c-0.3,0.7-0.6,1.5-1.1,2.1c-0.4,0.7-1,1.2-1.5,1.7
				c-0.6,0.5-1.2,0.9-1.8,1.2c-0.6,0.3-1.2,0.6-1.8,0.8c-0.6,0.2-1.1,0.3-1.6,0.3c-0.5,0.1-0.9,0.1-1.3,0.1c-0.7,0-1.2-0.1-1.2-0.1
				l-0.1,0c-0.8-0.1-1.3-0.9-1.2-1.6c0.1-0.8,0.9-1.3,1.6-1.2c0.1,0,0.2,0,0.3,0.1c0,0,0.3,0.1,0.8,0.2c0.3,0.1,0.6,0.1,1,0.1
				c0.2,0,0.4,0,0.6,0c0.2,0,0.4,0,0.7-0.1c0.5-0.1,1-0.2,1.4-0.4c0.5-0.2,1-0.5,1.5-0.8c0.5-0.4,0.9-0.8,1.3-1.3
				c0.4-0.5,0.7-1.1,1-1.7c0.3-0.6,0.4-1.2,0.6-1.8c0-0.3,0.1-0.7,0.1-1c0-0.3,0-0.6,0-0.9c-0.1-1.2-0.6-2.4-1.1-3.3
				c-0.5-0.9-1.2-1.5-1.6-1.9c-0.2-0.2-0.4-0.4-0.6-0.4c-0.1-0.1-0.2-0.2-0.2-0.2c0,0-0.1-0.1,0-0.1
				C-270.5-13.9-270.5-13.9-270.4-13.9z"/>
		</g>
	</g>
	<g>
		<path class="st2" d="M-218.1-14.4c-0.5,2-2,3.5-4.7,3.5c-3.5,0-5.3-2.7-5.3-6c0-3.2,1.8-6.1,5.3-6.1c2.8,0,4.3,1.6,4.6,3.5h-1.6
			c-0.4-1.3-1.3-2.2-3.1-2.2c-2.6,0-3.6,2.4-3.6,4.7c0,2.3,1,4.7,3.7,4.7c1.8,0,2.6-1,3-2.2H-218.1z"/>
		<path class="st2" d="M-208.5-15.4c0,2.5-1.4,4.5-4,4.5c-2.4,0-3.9-1.9-3.9-4.5c0-2.5,1.5-4.5,4-4.5C-210-19.8-208.5-18-208.5-15.4
			z M-214.9-15.3c0,1.9,0.9,3.3,2.5,3.3c1.6,0,2.4-1.3,2.4-3.2c0-1.9-0.9-3.3-2.5-3.3S-214.9-17.3-214.9-15.3z"/>
		<path class="st2" d="M-206.3-11.1v-12.4h1.5v12.4H-206.3z"/>
		<path class="st2" d="M-202.1-11.1v-12.4h1.5v12.4H-202.1z"/>
		<path class="st2" d="M-196.9-15.1c0,1.7,0.9,3,2.3,3c1.3,0,1.8-0.7,2.1-1.3h1.5c-0.3,1.1-1.3,2.6-3.6,2.6c-2.7,0-3.8-2.2-3.8-4.4
			c0-2.5,1.3-4.6,3.9-4.6c2.8,0,3.7,2.2,3.7,4c0,0.3,0,0.5,0,0.7H-196.9z M-192.4-16.1c0-1.4-0.7-2.5-2.2-2.5c-1.5,0-2.2,1-2.3,2.5
			H-192.4z"/>
		<path class="st2" d="M-181.5-11.8c0,2.7-1.1,4.3-3.9,4.3c-2.6,0-3.4-1.5-3.5-2.6h1.5c0.3,0.9,1,1.4,2.1,1.4c1.9,0,2.4-1.2,2.4-3.2
			v-0.7c-0.5,0.9-1.2,1.5-2.7,1.5c-2.1,0-3.5-1.7-3.5-4.2c0-2.8,1.6-4.5,3.7-4.5c1.6,0,2.3,0.8,2.5,1.3c0-0.4,0.1-1,0.1-1.1h1.4
			c0,0.5,0,1.7,0,2.5V-11.8z M-185.3-12.3c1.8,0,2.4-1.2,2.4-3.1c0-1.9-0.5-3.1-2.3-3.1c-1.6,0-2.4,1.3-2.4,3.2
			C-187.7-13.6-186.7-12.3-185.3-12.3z"/>
		<path class="st2" d="M-177.9-15.1c0,1.7,0.9,3,2.3,3c1.3,0,1.8-0.7,2.1-1.3h1.5c-0.3,1.1-1.3,2.6-3.6,2.6c-2.7,0-3.8-2.2-3.8-4.4
			c0-2.5,1.3-4.6,3.9-4.6c2.8,0,3.7,2.2,3.7,4c0,0.3,0,0.5,0,0.7H-177.9z M-173.3-16.1c0-1.4-0.7-2.5-2.2-2.5c-1.5,0-2.2,1-2.3,2.5
			H-173.3z"/>
		<path class="st2" d="M-157.8-15.4c0,2.5-1.4,4.5-4,4.5c-2.4,0-3.9-1.9-3.9-4.5c0-2.5,1.5-4.5,4-4.5
			C-159.4-19.8-157.8-18-157.8-15.4z M-164.3-15.3c0,1.9,0.9,3.3,2.5,3.3c1.6,0,2.4-1.3,2.4-3.2c0-1.9-0.9-3.3-2.5-3.3
			S-164.3-17.3-164.3-15.3z"/>
		<path class="st2" d="M-155.3-11.1v-7.4h-1.4v-1.2h1.4v-1c0-1.6,0.6-3,2.5-3c0.3,0,0.7,0,0.9,0.1v1.3c-0.2-0.1-0.5-0.1-0.7-0.1
			c-0.9,0-1.2,0.5-1.2,1.8v0.9h1.7v1.2h-1.7v7.4H-155.3z"/>
		<path class="st2" d="M-136.4-14.4c-0.5,2-2,3.5-4.7,3.5c-3.5,0-5.3-2.7-5.3-6c0-3.2,1.8-6.1,5.3-6.1c2.8,0,4.3,1.6,4.6,3.5h-1.6
			c-0.4-1.3-1.3-2.2-3.1-2.2c-2.6,0-3.6,2.4-3.6,4.7c0,2.3,1,4.7,3.7,4.7c1.8,0,2.6-1,3-2.2H-136.4z"/>
		<path class="st2" d="M-132.8-23.4v5.1c0.4-0.8,1.2-1.5,2.7-1.5c1.4,0,2.9,0.7,2.9,3.3v5.5h-1.5v-5.2c0-1.5-0.6-2.3-1.9-2.3
			c-1.5,0-2.2,1-2.2,2.8v4.7h-1.5v-12.4H-132.8z"/>
		<path class="st2" d="M-124.5-21.6v-1.8h1.5v1.8H-124.5z M-124.5-19.6h1.5v8.5h-1.5V-19.6z"/>
		<path class="st2" d="M-120.2-17.3c0-1.2,0-1.9,0-2.3h1.5c0,0.2,0.1,0.9,0.1,1.7c0.4-1.1,1.5-1.9,2.9-1.9v1.5
			c-1.8,0.1-2.9,1-2.9,3.1v4.1h-1.5V-17.3z"/>
		<path class="st2" d="M-106.8-15.4c0,2.5-1.4,4.5-4,4.5c-2.4,0-3.9-1.9-3.9-4.5c0-2.5,1.5-4.5,4-4.5
			C-108.4-19.8-106.8-18-106.8-15.4z M-113.2-15.3c0,1.9,0.9,3.3,2.5,3.3c1.6,0,2.4-1.3,2.4-3.2c0-1.9-0.9-3.3-2.5-3.3
			S-113.2-17.3-113.2-15.3z"/>
		<path class="st2" d="M-104.6-7.7v-9.8c0-0.7,0-1.4,0-2.1h1.4c0,0.3,0.1,0.8,0.1,1.3c0.5-0.9,1.3-1.6,2.8-1.6c2,0,3.4,1.7,3.4,4.2
			c0,3.1-1.6,4.7-3.7,4.7c-1.4,0-2.1-0.6-2.5-1.3v4.4H-104.6z M-100.8-18.5c-1.8,0-2.5,1.1-2.5,3.2c0,2,0.6,3.2,2.4,3.2
			c1.6,0,2.4-1.3,2.4-3.4C-98.5-17.3-99.3-18.5-100.8-18.5z"/>
		<path class="st2" d="M-94.8-17.3c0-1.2,0-1.9,0-2.3h1.5c0,0.2,0.1,0.9,0.1,1.7c0.4-1.1,1.5-1.9,2.9-1.9v1.5
			c-1.8,0.1-2.9,1-2.9,3.1v4.1h-1.5V-17.3z"/>
		<path class="st2" d="M-82.5-12.9c0,0.8,0.1,1.6,0.1,1.9h-1.4c-0.1-0.2-0.1-0.6-0.1-1.1c-0.3,0.6-1,1.3-2.6,1.3
			c-2,0-2.9-1.3-2.9-2.6c0-1.9,1.5-2.8,4-2.8h1.5V-17c0-0.8-0.2-1.7-1.8-1.7c-1.4,0-1.7,0.7-1.8,1.4h-1.4c0.1-1.2,0.8-2.5,3.3-2.5
			c2.1,0,3.3,0.9,3.3,2.8V-12.9z M-83.9-15.2h-1.4c-1.7,0-2.6,0.5-2.6,1.7c0,0.9,0.6,1.5,1.7,1.5c2.1,0,2.3-1.4,2.3-2.9V-15.2z"/>
		<path class="st2" d="M-73-13.7c-0.4,1.5-1.3,2.8-3.5,2.8c-2.4,0-3.8-1.7-3.8-4.4c0-2.4,1.4-4.5,3.9-4.5c2.5,0,3.3,1.8,3.4,2.8
			h-1.5c-0.2-0.9-0.7-1.6-2-1.6c-1.5,0-2.4,1.3-2.4,3.2c0,2,0.8,3.3,2.3,3.3c1.1,0,1.7-0.6,2-1.6H-73z"/>
		<path class="st2" d="M-71.8-19.6h1.5v-2.5h1.5v2.5h1.9v1.2h-1.9v5c0,0.8,0.2,1.3,1,1.3c0.2,0,0.5,0,0.7-0.1v1.1
			c-0.4,0.1-0.9,0.2-1.3,0.2c-1.3,0-1.9-0.7-1.9-2.1v-5.4h-1.5V-19.6z"/>
		<path class="st2" d="M-57.9-15.4c0,2.5-1.4,4.5-4,4.5c-2.4,0-3.9-1.9-3.9-4.5c0-2.5,1.5-4.5,4-4.5C-59.4-19.8-57.9-18-57.9-15.4z
			 M-64.3-15.3c0,1.9,0.9,3.3,2.5,3.3c1.6,0,2.4-1.3,2.4-3.2c0-1.9-0.9-3.3-2.5-3.3C-63.5-18.6-64.3-17.3-64.3-15.3z"/>
		<path class="st2" d="M-55.7-17.3c0-1.2,0-1.9,0-2.3h1.5c0,0.2,0.1,0.9,0.1,1.7c0.4-1.1,1.5-1.9,2.9-1.9v1.5
			c-1.8,0.1-2.9,1-2.9,3.1v4.1h-1.5V-17.3z"/>
		<path class="st2" d="M-48.8-13.5c0.2,0.9,0.9,1.5,2.1,1.5c1.2,0,1.7-0.5,1.7-1.3c0-0.8-0.4-1.2-2-1.6c-2.4-0.6-3-1.3-3-2.5
			c0-1.2,0.9-2.4,3.1-2.4c2.2,0,3.1,1.3,3.2,2.5h-1.4c-0.1-0.5-0.6-1.3-1.9-1.3c-1.2,0-1.6,0.6-1.6,1.1c0,0.6,0.4,1,1.9,1.3
			c2.6,0.6,3.1,1.5,3.1,2.7c0,1.5-1.2,2.6-3.3,2.6c-2.2,0-3.3-1.1-3.5-2.6H-48.8z"/>
		<path class="st2" d="M-29.4-15.4c0,2.5-1.4,4.5-4,4.5c-2.4,0-3.9-1.9-3.9-4.5c0-2.5,1.5-4.5,4-4.5C-31-19.8-29.4-18-29.4-15.4z
			 M-35.9-15.3c0,1.9,0.9,3.3,2.5,3.3c1.6,0,2.4-1.3,2.4-3.2c0-1.9-0.9-3.3-2.5-3.3C-35-18.6-35.9-17.3-35.9-15.3z"/>
		<path class="st2" d="M-26.9-11.1v-7.4h-1.4v-1.2h1.4v-1c0-1.6,0.6-3,2.5-3c0.3,0,0.7,0,0.9,0.1v1.3c-0.2-0.1-0.5-0.1-0.7-0.1
			c-0.9,0-1.2,0.5-1.2,1.8v0.9h1.7v1.2h-1.7v7.4H-26.9z"/>
		<path class="st2" d="M-7.1-17c0,3.2-1.8,6.1-5.5,6.1c-3.5,0-5.4-2.7-5.4-6c0-3.4,2-6,5.5-6C-9.2-23-7.1-20.5-7.1-17z M-16.3-17
			c0,2.5,1.3,4.8,3.8,4.8c2.7,0,3.8-2.2,3.8-4.7c0-2.5-1.2-4.7-3.8-4.7C-15.2-21.6-16.3-19.5-16.3-17z"/>
		<path class="st2" d="M-4.7-17.4c0-0.7,0-1.5,0-2.2h1.4c0.1,0.3,0.1,1.1,0.1,1.4c0.3-0.7,1-1.6,2.7-1.6c1.6,0,2.9,1,2.9,3.3v5.5
			H0.8v-5.3c0-1.3-0.5-2.2-1.8-2.2c-1.6,0-2.3,1.2-2.3,3v4.5h-1.5V-17.4z"/>
		<path class="st2" d="M3.9-19.6h1.5v-2.5h1.5v2.5h1.9v1.2H6.8v5c0,0.8,0.2,1.3,1,1.3c0.2,0,0.5,0,0.7-0.1v1.1
			c-0.4,0.1-0.9,0.2-1.3,0.2c-1.3,0-1.9-0.7-1.9-2.1v-5.4H3.9V-19.6z"/>
		<path class="st2" d="M17-12.9c0,0.8,0.1,1.6,0.1,1.9h-1.4c-0.1-0.2-0.1-0.6-0.1-1.1c-0.3,0.6-1,1.3-2.6,1.3c-2,0-2.9-1.3-2.9-2.6
			c0-1.9,1.5-2.8,4-2.8h1.5V-17c0-0.8-0.2-1.7-1.8-1.7c-1.4,0-1.7,0.7-1.8,1.4h-1.4c0.1-1.2,0.8-2.5,3.3-2.5c2.1,0,3.3,0.9,3.3,2.8
			V-12.9z M15.5-15.2h-1.4c-1.7,0-2.6,0.5-2.6,1.7c0,0.9,0.6,1.5,1.7,1.5c2.1,0,2.3-1.4,2.3-2.9V-15.2z"/>
		<path class="st2" d="M19.8-17.3c0-1.2,0-1.9,0-2.3h1.5c0,0.2,0.1,0.9,0.1,1.7c0.4-1.1,1.5-1.9,2.9-1.9v1.5c-1.8,0.1-2.9,1-2.9,3.1
			v4.1h-1.5V-17.3z"/>
		<path class="st2" d="M25.9-21.6v-1.8h1.5v1.8H25.9z M25.9-19.6h1.5v8.5h-1.5V-19.6z"/>
		<path class="st2" d="M37.5-15.4c0,2.5-1.4,4.5-4,4.5c-2.4,0-3.9-1.9-3.9-4.5c0-2.5,1.5-4.5,4-4.5C35.9-19.8,37.5-18,37.5-15.4z
			 M31-15.3c0,1.9,0.9,3.3,2.5,3.3c1.6,0,2.4-1.3,2.4-3.2c0-1.9-0.9-3.3-2.5-3.3C31.9-18.6,31-17.3,31-15.3z"/>
		<path class="st2" d="M-227.4-2.6h1.6V7.8h6.1l-0.2,1.3h-7.5V-2.6z"/>
		<path class="st2" d="M-220.5,1.3c0.5-1.5,0.7-3.4,0.8-4.5h1.5c-0.1,1.4-0.6,3.4-1.1,4.5H-220.5z"/>
		<path class="st2" d="M-205.9,3.2c0,3.2-1.8,6.1-5.5,6.1c-3.5,0-5.4-2.7-5.4-6c0-3.4,2-6,5.5-6C-208-2.7-205.9-0.2-205.9,3.2z
			 M-215.2,3.3c0,2.5,1.3,4.8,3.8,4.8c2.7,0,3.8-2.2,3.8-4.7c0-2.5-1.2-4.7-3.8-4.7C-214-1.4-215.2,0.8-215.2,3.3z"/>
		<path class="st2" d="M-203.5,3c0-1.2,0-1.9,0-2.3h1.5c0,0.2,0.1,0.9,0.1,1.7c0.4-1.1,1.5-1.9,2.9-1.9v1.5c-1.8,0.1-2.9,1-2.9,3.1
			v4.1h-1.5V3z"/>
		<path class="st2" d="M-190.4-3.2v10c0,0.8,0,1.6,0,2.4h-1.4c-0.1-0.2-0.1-0.9-0.1-1.2c-0.4,0.9-1.3,1.4-2.7,1.4
			c-2.2,0-3.6-1.8-3.6-4.4c0-2.6,1.5-4.6,3.8-4.6c1.5,0,2.2,0.6,2.4,1.1v-4.7H-190.4z M-194.2,8.1c2,0,2.4-1.5,2.4-3.4
			c0-1.9-0.4-3.1-2.3-3.1c-1.5,0-2.4,1.2-2.4,3.3C-196.6,7-195.6,8.1-194.2,8.1z"/>
		<path class="st2" d="M-187.6,3c0-1.2,0-1.9,0-2.3h1.5c0,0.2,0.1,0.9,0.1,1.7c0.4-1.1,1.5-1.9,2.9-1.9v1.5c-1.8,0.1-2.9,1-2.9,3.1
			v4.1h-1.5V3z"/>
		<path class="st2" d="M-180.7,5.2c0,1.7,0.9,3,2.3,3c1.3,0,1.8-0.7,2.1-1.3h1.5c-0.3,1.1-1.3,2.6-3.6,2.6c-2.7,0-3.8-2.2-3.8-4.4
			c0-2.5,1.3-4.6,3.9-4.6c2.8,0,3.7,2.2,3.7,4c0,0.3,0,0.5,0,0.7H-180.7z M-176.1,4.1c0-1.4-0.7-2.5-2.2-2.5c-1.5,0-2.2,1-2.3,2.5
			H-176.1z"/>
		<path class="st2" d="M-160.9-3.2v10c0,0.8,0,1.6,0,2.4h-1.4c-0.1-0.2-0.1-0.9-0.1-1.2c-0.4,0.9-1.3,1.4-2.7,1.4
			c-2.2,0-3.6-1.8-3.6-4.4c0-2.6,1.5-4.6,3.8-4.6c1.5,0,2.2,0.6,2.4,1.1v-4.7H-160.9z M-164.7,8.1c2,0,2.4-1.5,2.4-3.4
			c0-1.9-0.4-3.1-2.3-3.1c-1.5,0-2.4,1.2-2.4,3.3C-167,7-166.1,8.1-164.7,8.1z"/>
		<path class="st2" d="M-157.2,5.2c0,1.7,0.9,3,2.3,3c1.3,0,1.8-0.7,2.1-1.3h1.5c-0.3,1.1-1.3,2.6-3.6,2.6c-2.7,0-3.8-2.2-3.8-4.4
			c0-2.5,1.3-4.6,3.9-4.6c2.8,0,3.7,2.2,3.7,4c0,0.3,0,0.5,0,0.7H-157.2z M-152.7,4.1c0-1.4-0.7-2.5-2.2-2.5c-1.5,0-2.2,1-2.3,2.5
			H-152.7z"/>
		<path class="st2" d="M-148.2,6.7c0.2,0.9,0.9,1.5,2.1,1.5c1.2,0,1.7-0.5,1.7-1.3c0-0.8-0.4-1.2-2-1.6c-2.4-0.6-3-1.3-3-2.5
			c0-1.2,0.9-2.4,3.1-2.4c2.2,0,3.1,1.3,3.2,2.5h-1.4c-0.1-0.5-0.6-1.3-1.9-1.3c-1.2,0-1.6,0.6-1.6,1.1c0,0.6,0.4,1,1.9,1.3
			c2.6,0.6,3.1,1.5,3.1,2.7c0,1.5-1.2,2.6-3.3,2.6c-2.2,0-3.3-1.1-3.5-2.6H-148.2z"/>
		<path class="st2" d="M-126.6,5.9c-0.5,2-2,3.5-4.7,3.5c-3.5,0-5.3-2.7-5.3-6c0-3.2,1.8-6.1,5.3-6.1c2.8,0,4.3,1.6,4.6,3.5h-1.6
			c-0.4-1.3-1.3-2.2-3.1-2.2c-2.6,0-3.6,2.4-3.6,4.7c0,2.3,1,4.7,3.7,4.7c1.8,0,2.6-1,3-2.2H-126.6z"/>
		<path class="st2" d="M-122.9-3.2v5.1c0.4-0.8,1.2-1.5,2.7-1.5c1.4,0,2.9,0.7,2.9,3.3v5.5h-1.5V4c0-1.5-0.6-2.3-1.9-2.3
			c-1.5,0-2.2,1-2.2,2.8v4.7h-1.5V-3.2H-122.9z"/>
		<path class="st2" d="M-114.6-1.4v-1.8h1.5v1.8H-114.6z M-114.6,0.6h1.5v8.5h-1.5V0.6z"/>
		<path class="st2" d="M-110.3,3c0-1.2,0-1.9,0-2.3h1.5c0,0.2,0.1,0.9,0.1,1.7c0.4-1.1,1.5-1.9,2.9-1.9v1.5c-1.8,0.1-2.9,1-2.9,3.1
			v4.1h-1.5V3z"/>
		<path class="st2" d="M-96.9,4.9c0,2.5-1.4,4.5-4,4.5c-2.4,0-3.9-1.9-3.9-4.5c0-2.5,1.5-4.5,4-4.5C-98.5,0.4-96.9,2.2-96.9,4.9z
			 M-103.4,4.9c0,1.9,0.9,3.3,2.5,3.3c1.6,0,2.4-1.3,2.4-3.2c0-1.9-0.9-3.3-2.5-3.3S-103.4,3-103.4,4.9z"/>
		<path class="st2" d="M-94.8,12.5V2.7c0-0.7,0-1.4,0-2.1h1.4c0,0.3,0.1,0.8,0.1,1.3c0.5-0.9,1.3-1.6,2.8-1.6c2,0,3.4,1.7,3.4,4.2
			c0,3.1-1.6,4.7-3.7,4.7c-1.4,0-2.1-0.6-2.5-1.3v4.4H-94.8z M-90.9,1.7c-1.8,0-2.5,1.1-2.5,3.2c0,2,0.6,3.2,2.4,3.2
			c1.6,0,2.4-1.3,2.4-3.4C-88.6,2.9-89.4,1.7-90.9,1.7z"/>
		<path class="st2" d="M-84.9,3c0-1.2,0-1.9,0-2.3h1.5c0,0.2,0.1,0.9,0.1,1.7c0.4-1.1,1.5-1.9,2.9-1.9v1.5c-1.8,0.1-2.9,1-2.9,3.1
			v4.1h-1.5V3z"/>
		<path class="st2" d="M-72.6,7.3c0,0.8,0.1,1.6,0.1,1.9h-1.4C-74,9-74,8.6-74.1,8.1c-0.3,0.6-1,1.3-2.6,1.3c-2,0-2.9-1.3-2.9-2.6
			c0-1.9,1.5-2.8,4-2.8h1.5V3.3c0-0.8-0.2-1.7-1.8-1.7c-1.4,0-1.7,0.7-1.8,1.4h-1.4c0.1-1.2,0.8-2.5,3.3-2.5c2.1,0,3.3,0.9,3.3,2.8
			V7.3z M-74.1,5h-1.4c-1.7,0-2.6,0.5-2.6,1.7c0,0.9,0.6,1.5,1.7,1.5c2.1,0,2.3-1.4,2.3-2.9V5z"/>
		<path class="st2" d="M-63.1,6.6c-0.4,1.5-1.3,2.8-3.5,2.8c-2.4,0-3.8-1.7-3.8-4.4c0-2.4,1.4-4.5,3.9-4.5c2.5,0,3.3,1.8,3.4,2.8
			h-1.5c-0.2-0.9-0.7-1.6-2-1.6c-1.5,0-2.4,1.3-2.4,3.2c0,2,0.8,3.3,2.3,3.3c1.1,0,1.7-0.6,2-1.6H-63.1z"/>
		<path class="st2" d="M-62,0.6h1.5v-2.5h1.5v2.5h1.9v1.2H-59v5c0,0.8,0.2,1.3,1,1.3c0.2,0,0.5,0,0.7-0.1v1.1
			c-0.4,0.1-0.9,0.2-1.3,0.2c-1.3,0-1.9-0.7-1.9-2.1V1.8H-62V0.6z"/>
		<path class="st2" d="M-55.3-1.4v-1.8h1.5v1.8H-55.3z M-55.3,0.6h1.5v8.5h-1.5V0.6z"/>
		<path class="st2" d="M-44.3,6.6c-0.4,1.5-1.3,2.8-3.5,2.8c-2.4,0-3.8-1.7-3.8-4.4c0-2.4,1.4-4.5,3.9-4.5c2.5,0,3.3,1.8,3.4,2.8
			h-1.5c-0.2-0.9-0.7-1.6-2-1.6c-1.5,0-2.4,1.3-2.4,3.2c0,2,0.8,3.3,2.3,3.3c1.1,0,1.7-0.6,2-1.6H-44.3z"/>
		<path class="st2" d="M-42.1-1.4v-1.8h1.5v1.8H-42.1z M-42.1,0.6h1.5v8.5h-1.5V0.6z"/>
		<path class="st2" d="M-37,5.2c0,1.7,0.9,3,2.3,3c1.3,0,1.8-0.7,2.1-1.3h1.5c-0.3,1.1-1.3,2.6-3.6,2.6c-2.7,0-3.8-2.2-3.8-4.4
			c0-2.5,1.3-4.6,3.9-4.6c2.8,0,3.7,2.2,3.7,4c0,0.3,0,0.5,0,0.7H-37z M-32.5,4.1c0-1.4-0.7-2.5-2.2-2.5c-1.5,0-2.2,1-2.3,2.5H-32.5
			z"/>
		<path class="st2" d="M-28.8,2.8c0-0.7,0-1.5,0-2.2h1.4c0.1,0.3,0.1,1.1,0.1,1.4c0.3-0.7,1-1.6,2.7-1.6c1.6,0,2.9,1,2.9,3.3v5.5
			h-1.5V3.9c0-1.3-0.5-2.2-1.8-2.2c-1.6,0-2.3,1.2-2.3,3v4.5h-1.5V2.8z"/>
		<path class="st2" d="M-18.4,6.7c0.2,0.9,0.9,1.5,2.1,1.5c1.2,0,1.7-0.5,1.7-1.3c0-0.8-0.4-1.2-2-1.6c-2.4-0.6-3-1.3-3-2.5
			c0-1.2,0.9-2.4,3.1-2.4c2.2,0,3.1,1.3,3.2,2.5h-1.4c-0.1-0.5-0.6-1.3-1.9-1.3c-1.2,0-1.6,0.6-1.6,1.1c0,0.6,0.4,1,1.9,1.3
			c2.6,0.6,3.1,1.5,3.1,2.7c0,1.5-1.2,2.6-3.3,2.6c-2.2,0-3.3-1.1-3.5-2.6H-18.4z"/>
		<path class="st2" d="M0.7-3.2v10c0,0.8,0,1.6,0,2.4h-1.4C-0.7,9-0.7,8.3-0.7,8C-1.2,8.9-2,9.4-3.4,9.4C-5.6,9.4-7,7.6-7,5
			c0-2.6,1.5-4.6,3.8-4.6C-1.6,0.4-1,1-0.7,1.5v-4.7H0.7z M-3.1,8.1c2,0,2.4-1.5,2.4-3.4c0-1.9-0.4-3.1-2.3-3.1
			c-1.5,0-2.4,1.2-2.4,3.3C-5.4,7-4.5,8.1-3.1,8.1z"/>
		<path class="st2" d="M4.4,5.2c0,1.7,0.9,3,2.3,3c1.3,0,1.8-0.7,2.1-1.3h1.5C10,7.9,9,9.4,6.7,9.4C4,9.4,2.9,7.2,2.9,5
			c0-2.5,1.3-4.6,3.9-4.6c2.8,0,3.7,2.2,3.7,4c0,0.3,0,0.5,0,0.7H4.4z M8.9,4.1c0-1.4-0.7-2.5-2.2-2.5c-1.5,0-2.2,1-2.3,2.5H8.9z"/>
		<path class="st2" d="M17.1,9.2V-3.2h1.5V9.2H17.1z"/>
		<path class="st2" d="M20.8,1.3c0.5-1.5,0.7-3.4,0.8-4.5h1.5c-0.1,1.4-0.6,3.4-1.1,4.5H20.8z"/>
		<path class="st2" d="M35.4,3.2c0,3.2-1.8,6.1-5.5,6.1c-3.5,0-5.4-2.7-5.4-6c0-3.4,2-6,5.5-6C33.4-2.7,35.4-0.2,35.4,3.2z
			 M26.2,3.3C26.2,5.8,27.5,8,30,8c2.7,0,3.8-2.2,3.8-4.7c0-2.5-1.2-4.7-3.8-4.7C27.4-1.4,26.2,0.8,26.2,3.3z"/>
		<path class="st2" d="M37.8,2.8c0-0.7,0-1.5,0-2.2h1.4c0.1,0.3,0.1,1.1,0.1,1.4c0.3-0.7,1-1.6,2.7-1.6c1.6,0,2.9,1,2.9,3.3v5.5
			h-1.5V3.9c0-1.3-0.5-2.2-1.8-2.2c-1.6,0-2.3,1.2-2.3,3v4.5h-1.5V2.8z"/>
		<path class="st2" d="M46.4,0.6h1.5v-2.5h1.5v2.5h1.9v1.2h-1.9v5c0,0.8,0.2,1.3,1,1.3c0.2,0,0.5,0,0.7-0.1v1.1
			c-0.4,0.1-0.9,0.2-1.3,0.2c-1.3,0-1.9-0.7-1.9-2.1V1.8h-1.5V0.6z"/>
		<path class="st2" d="M59.5,7.3c0,0.8,0.1,1.6,0.1,1.9h-1.4c-0.1-0.2-0.1-0.6-0.1-1.1c-0.3,0.6-1,1.3-2.6,1.3c-2,0-2.9-1.3-2.9-2.6
			c0-1.9,1.5-2.8,4-2.8h1.4V3.3c0-0.8-0.2-1.7-1.8-1.7c-1.4,0-1.7,0.7-1.8,1.4H53c0.1-1.2,0.8-2.5,3.3-2.5c2.1,0,3.3,0.9,3.3,2.8
			V7.3z M58.1,5h-1.4c-1.7,0-2.6,0.5-2.6,1.7c0,0.9,0.6,1.5,1.7,1.5c2.1,0,2.3-1.4,2.3-2.9V5z"/>
		<path class="st2" d="M62.3,3c0-1.2,0-1.9,0-2.3h1.5c0,0.2,0.1,0.9,0.1,1.7c0.4-1.1,1.5-1.9,2.9-1.9v1.5c-1.8,0.1-2.9,1-2.9,3.1
			v4.1h-1.5V3z"/>
		<path class="st2" d="M68.4-1.4v-1.8h1.5v1.8H68.4z M68.4,0.6h1.5v8.5h-1.5V0.6z"/>
		<path class="st2" d="M80,4.9c0,2.5-1.4,4.5-4,4.5c-2.4,0-3.9-1.9-3.9-4.5c0-2.5,1.5-4.5,4-4.5C78.4,0.4,80,2.2,80,4.9z M73.6,4.9
			c0,1.9,0.9,3.3,2.5,3.3c1.6,0,2.4-1.3,2.4-3.2c0-1.9-0.9-3.3-2.5-3.3C74.4,1.7,73.6,3,73.6,4.9z"/>
	</g>
</g>
</svg>
